# xmcd CD database file
#
# Track frame offsets:
#	150
#	11172
#	25115
#	37440
#	49200
#	63400
#	75207
#	88982
#	101125
#	113995
#	126827
#	138385
#	148795
#	162127
#	175852
#	188617
#	200395
#	212587
#	221460
#	234340
#	246485
#	257822
#	270320
#	280775
#	295855
#	304555
#	314447
#	317917
#	333330
#
# Disc length: 4612 seconds
#
# Revision: 1
# Processed by: cddbd v1.5.1PL2 Copyright (c) Steve Scherf et al.
# Submitted via: CDex 1.40Release
#
DISCID=ae12021d
DTITLE=Cardinals - Come Back My Love
DYEAR=1900
DGENRE=Doo Wop
TTITLE0=Come Back My Love
TTITLE1=She Rocks
TTITLE2=Lovie Darling
TTITLE3=Pretty Baby Blues
TTITLE4=Shouldn't I Know
TTITLE5=Here Goes My Heart to You
TTITLE6=I'll Always Love You
TTITLE7=Please Don't Leave Me
TTITLE8=The Bump
TTITLE9=The Wheel of Fortune
TTITLE10=Kiss Me Baby
TTITLE11=Misirlou
TTITLE12=The Door Is Still Open
TTITLE13=Under a Blanket of Blue
TTITLE14=Lovely Girl
TTITLE15=Two Things I Love
TTITLE16=Choo Choo
TTITLE17=Near You
TTITLE18=I Won't Make You Cry Anymore
TTITLE19=Off Shore
TTITLE20=The End of the Story
TTITLE21=Please, Baby
TTITLE22=One Love
TTITLE23=You Are My Only Love
TTITLE24=Love Me (acetate, demo)
TTITLE25=Train (Choo-Choo) (acetate, demo)
TTITLE26=Sure Nuff (acetate, demo)
TTITLE27=I'll Always Love You (acetate, demo)
TTITLE28=Would I Love You (acetate, demo)
EXTD=
EXTT0=
EXTT1=
EXTT2=
EXTT3=
EXTT4=
EXTT5=
EXTT6=
EXTT7=
EXTT8=
EXTT9=
EXTT10=
EXTT11=
EXTT12=
EXTT13=
EXTT14=
EXTT15=
EXTT16=
EXTT17=
EXTT18=
EXTT19=
EXTT20=
EXTT21=
EXTT22=
EXTT23=
EXTT24=
EXTT25=
EXTT26=
EXTT27=
EXTT28=
PLAYORDER=
